<?xml version="1.0" standalone="no"?>
<!DOCTYPE svg PUBLIC "-//W3C//DTD SVG 20010904//EN"
 "http://www.w3.org/TR/2001/REC-SVG-20010904/DTD/svg10.dtd">
<svg version="1.0" xmlns="http://www.w3.org/2000/svg"
 width="700.000000pt" height="700.000000pt" viewBox="0 0 700.000000 700.000000"
 preserveAspectRatio="xMidYMid meet">
<metadata>
Created by potrace 1.14, written by Peter Selinger 2001-2017
</metadata>
<g transform="translate(0.000000,700.000000) scale(0.100000,-0.100000)"
fill="#000000" stroke="none">
<path d="M525 6323 c-149 -54 -253 -164 -291 -308 -21 -77 -20 -4066 1 -4144
45 -172 170 -295 333 -330 29 -6 128 -11 220 -11 92 0 257 -5 367 -10 1103
-55 1746 -276 2133 -733 85 -99 131 -127 212 -127 81 0 127 27 213 129 331
386 829 599 1617 690 247 28 449 41 800 50 278 7 310 10 361 30 121 47 215
137 262 251 l22 55 3 2050 c2 1854 1 2054 -14 2105 -36 127 -121 226 -241 283
-68 32 -69 32 -253 35 -197 4 -500 -10 -745 -34 -720 -71 -1255 -243 -1635
-525 -108 -81 -259 -232 -330 -331 -30 -43 -57 -77 -60 -78 -3 0 -21 24 -41
53 -298 426 -830 702 -1604 831 -312 52 -590 75 -980 82 -272 4 -305 3 -350
-13z m530 -428 c620 -23 1159 -131 1525 -306 339 -162 569 -408 674 -721 l26
-77 0 -1700 0 -1700 -57 40 c-326 229 -836 399 -1423 473 -271 35 -762 66
-1037 66 l-103 0 0 1970 0 1971 123 -5 c67 -3 190 -8 272 -11z m5285 -1955 l0
-1970 -102 0 c-137 0 -542 -18 -698 -30 -476 -39 -900 -121 -1215 -235 -166
-60 -383 -166 -507 -248 l-98 -64 0 1699 0 1699 25 75 c190 565 741 879 1743
994 170 19 463 39 652 43 58 2 126 4 153 5 l47 2 0 -1970z"/>
</g>
</svg>
